<svg width="363" height="368" viewBox="0 0 363 368" fill="none" xmlns="http://www.w3.org/2000/svg">
    <rect width="362.47" height="367.338" rx="73.4675" fill="url(#paint0_linear_4069_1053)"/>
    <path d="M226.882 140.993C230.486 159.128 225.377 174.464 211.554 187C220.723 188.44 228.947 192.425 236.226 198.954C243.506 205.483 248.549 215.81 251.356 229.935C254.128 243.885 251.098 255.998 242.264 266.273C233.604 276.514 219.596 283.558 200.24 287.404L138.51 299.673C135.545 300.262 132.913 299.788 130.614 298.251C128.28 296.54 126.783 294.027 126.125 290.714L92.8554 123.309C92.4742 121.391 92.4931 120.119 92.9123 119.491C93.4712 118.655 94.7097 118.047 96.6279 117.665L156.266 105.813C197.071 97.7036 220.61 109.43 226.882 140.993ZM150.562 150.995L157.372 185.26L158.68 185C175.421 181.673 182.682 174.43 180.464 163.269C179.251 157.166 176.711 153.049 172.843 150.917C169.15 148.751 163.554 148.413 156.055 149.903L150.562 150.995ZM163.506 216.125L170.264 250.13L174.973 249.194C182.471 247.704 187.687 245.217 190.62 241.734C193.553 238.25 194.413 233.457 193.2 227.354C191.987 221.251 189.481 217.308 185.683 215.525C182.059 213.707 176.498 213.544 168.999 215.034L163.506 216.125Z" fill="black"/>
    <mask id="path-3-outside-1_4069_1053" maskUnits="userSpaceOnUse" x="99.6418" y="53.2785" width="190.025" height="230.891" fill="black">
    <rect fill="white" x="99.6418" y="53.2785" width="190.025" height="230.891"/>
    <path d="M245.511 112.829C249.115 130.964 244.006 146.3 230.183 158.836C239.352 160.276 247.576 164.261 254.855 170.79C262.134 177.319 267.178 187.646 269.985 201.771C272.757 215.721 269.727 227.834 260.893 238.109C252.233 248.35 238.225 255.394 218.869 259.24L157.138 271.509C154.174 272.098 151.542 271.624 149.243 270.087C146.909 268.376 145.412 265.863 144.754 262.55L111.484 95.1454C111.103 93.2272 111.122 91.9545 111.541 91.3274C112.1 90.4913 113.339 89.8826 115.257 89.5014L174.895 77.649C215.7 69.5395 239.238 81.2662 245.511 112.829ZM169.191 122.83L176.001 157.096L177.309 156.836C194.05 153.509 201.311 146.266 199.093 135.105C197.88 129.002 195.34 124.885 191.472 122.753C187.778 120.587 182.183 120.249 174.684 121.739L169.191 122.83ZM182.135 187.961L188.893 221.965L193.601 221.03C201.1 219.54 206.316 217.053 209.249 213.57C212.182 210.086 213.042 205.293 211.829 199.19C210.616 193.087 208.11 189.144 204.312 187.361C200.688 185.543 195.127 185.379 187.628 186.87L182.135 187.961Z"/>
    </mask>
    <path d="M245.511 112.829C249.115 130.964 244.006 146.3 230.183 158.836C239.352 160.276 247.576 164.261 254.855 170.79C262.134 177.319 267.178 187.646 269.985 201.771C272.757 215.721 269.727 227.834 260.893 238.109C252.233 248.35 238.225 255.394 218.869 259.24L157.138 271.509C154.174 272.098 151.542 271.624 149.243 270.087C146.909 268.376 145.412 265.863 144.754 262.55L111.484 95.1454C111.103 93.2272 111.122 91.9545 111.541 91.3274C112.1 90.4913 113.339 89.8826 115.257 89.5014L174.895 77.649C215.7 69.5395 239.238 81.2662 245.511 112.829ZM169.191 122.83L176.001 157.096L177.309 156.836C194.05 153.509 201.311 146.266 199.093 135.105C197.88 129.002 195.34 124.885 191.472 122.753C187.778 120.587 182.183 120.249 174.684 121.739L169.191 122.83ZM182.135 187.961L188.893 221.965L193.601 221.03C201.1 219.54 206.316 217.053 209.249 213.57C212.182 210.086 213.042 205.293 211.829 199.19C210.616 193.087 208.11 189.144 204.312 187.361C200.688 185.543 195.127 185.379 187.628 186.87L182.135 187.961Z" fill="white"/>
    <path d="M230.183 158.836L224.583 152.66L211.675 164.366L228.889 167.071L230.183 158.836ZM254.855 170.79L260.421 164.584L260.421 164.584L254.855 170.79ZM260.893 238.109L254.571 232.675L254.549 232.7L254.527 232.726L260.893 238.109ZM149.243 270.087L144.313 276.81L144.459 276.917L144.61 277.018L149.243 270.087ZM111.541 91.3274L104.61 86.6948L104.61 86.6948L111.541 91.3274ZM169.191 122.83L167.566 114.654L159.39 116.279L161.015 124.455L169.191 122.83ZM176.001 157.096L167.825 158.721L169.45 166.898L177.626 165.273L176.001 157.096ZM191.472 122.753L187.254 129.944L187.35 130L187.448 130.054L191.472 122.753ZM182.135 187.961L180.51 179.785L172.334 181.41L173.959 189.586L182.135 187.961ZM188.893 221.965L180.717 223.59L182.342 231.767L190.518 230.142L188.893 221.965ZM209.249 213.57L215.625 218.939L209.249 213.57ZM204.312 187.361L200.575 194.813L200.672 194.861L200.77 194.907L204.312 187.361ZM237.335 114.454C240.362 129.685 236.261 142.07 224.583 152.66L235.784 165.011C251.751 150.53 257.869 132.244 253.688 111.204L237.335 114.454ZM228.889 167.071C236.38 168.248 243.14 171.481 249.289 176.996L260.421 164.584C252.011 157.041 242.323 152.304 231.477 150.6L228.889 167.071ZM249.289 176.996C254.724 181.871 259.194 190.24 261.808 203.396L278.161 200.146C275.162 185.053 269.545 172.768 260.421 164.584L249.289 176.996ZM261.808 203.396C264.11 214.978 261.641 224.452 254.571 232.675L267.214 243.544C277.812 231.217 281.405 216.465 278.161 200.146L261.808 203.396ZM254.527 232.726C247.544 240.985 235.591 247.417 217.244 251.064L220.494 267.417C240.859 263.37 256.922 255.715 267.258 243.492L254.527 232.726ZM217.244 251.064L155.513 263.332L158.763 279.685L220.494 267.417L217.244 251.064ZM155.513 263.332C154.496 263.534 154.157 263.344 153.875 263.156L144.61 277.018C148.927 279.903 153.852 280.661 158.763 279.685L155.513 263.332ZM154.172 263.364C153.797 263.089 153.255 262.557 152.931 260.925L136.577 264.175C137.57 269.17 140.02 273.662 144.313 276.81L154.172 263.364ZM152.931 260.925L119.661 93.5204L103.308 96.7704L136.577 264.175L152.931 260.925ZM119.661 93.5204C119.531 92.8656 119.551 92.7019 119.548 92.8766C119.547 92.9794 119.536 93.3126 119.425 93.7923C119.316 94.2655 119.066 95.0714 118.472 95.9601L104.61 86.6948C103.085 88.9774 102.896 91.3692 102.877 92.628C102.855 94.0753 103.057 95.507 103.308 96.7704L119.661 93.5204ZM118.472 95.9601C117.688 97.1327 116.794 97.6135 116.566 97.7256C116.327 97.8433 116.364 97.7809 116.882 97.678L113.632 81.3248C111.348 81.7788 107.138 82.9134 104.61 86.6948L118.472 95.9601ZM116.882 97.678L176.52 85.8256L173.27 69.4725L113.632 81.3248L116.882 97.678ZM176.52 85.8256C196.095 81.9352 210.035 83.1405 219.435 87.8237C228.376 92.2779 234.576 100.575 237.335 114.454L253.688 111.204C250.173 93.5205 241.468 80.1725 226.87 72.9001C212.732 65.8567 194.499 65.2534 173.27 69.4725L176.52 85.8256ZM161.015 124.455L167.825 158.721L184.178 155.471L177.368 121.205L161.015 124.455ZM177.626 165.273L178.934 165.013L175.684 148.66L174.376 148.92L177.626 165.273ZM178.934 165.013C187.955 163.22 195.86 160.135 201.198 154.81C207.043 148.979 208.852 141.442 207.269 133.48L190.916 136.73C191.552 139.929 190.839 141.594 189.423 143.006C187.499 144.925 183.404 147.125 175.684 148.66L178.934 165.013ZM207.269 133.48C205.781 125.992 202.291 119.197 195.496 115.452L187.448 130.054C188.388 130.572 189.978 132.012 190.916 136.73L207.269 133.48ZM195.69 115.562C189.295 111.812 181.142 111.956 173.059 113.562L176.309 129.915C183.223 128.541 186.262 129.362 187.254 129.944L195.69 115.562ZM173.059 113.562L167.566 114.654L170.816 131.007L176.309 129.915L173.059 113.562ZM173.959 189.586L180.717 223.59L197.07 220.34L190.312 186.336L173.959 189.586ZM190.518 230.142L195.226 229.206L191.976 212.853L187.268 213.789L190.518 230.142ZM195.226 229.206C203.429 227.576 210.886 224.567 215.625 218.939L202.872 208.2C201.745 209.538 198.771 211.503 191.976 212.853L195.226 229.206ZM215.625 218.939C220.734 212.873 221.52 205.185 220.005 197.565L203.652 200.815C204.564 205.402 203.63 207.3 202.872 208.2L215.625 218.939ZM220.005 197.565C218.537 190.174 215.046 183.19 207.854 179.814L200.77 194.907C201.174 195.097 202.695 195.999 203.652 200.815L220.005 197.565ZM208.049 179.909C201.836 176.793 193.928 177.118 186.003 178.693L189.253 195.046C196.325 193.641 199.539 194.293 200.575 194.813L208.049 179.909ZM186.003 178.693L180.51 179.785L183.76 196.138L189.253 195.046L186.003 178.693Z" fill="black" mask="url(#path-3-outside-1_4069_1053)"/>
    <path d="M106.733 88.4055L93.1055 119.269L132.957 287.714L225.073 279.712L236.997 271.818L262.06 248.775L240.305 257.455L152.101 274.985L143.377 272.787L106.733 88.4055Z" fill="black"/>
    <defs>
    <linearGradient id="paint0_linear_4069_1053" x1="405" y1="-53" x2="337.555" y2="253.899" gradientUnits="userSpaceOnUse">
    <stop stop-color="#0CA8FE"/>
    <stop offset="0.266546" stop-color="#007EFC"/>
    <stop offset="0.78091" stop-color="#FFD204"/>
    <stop offset="1" stop-color="#FFD400"/>
    </linearGradient>
    </defs>
    </svg>
    