<?xml version="1.0" standalone="no"?>
<!DOCTYPE svg PUBLIC "-//W3C//DTD SVG 20010904//EN"
 "http://www.w3.org/TR/2001/REC-SVG-20010904/DTD/svg10.dtd">
<svg version="1.0" xmlns="http://www.w3.org/2000/svg"
 width="512.000000pt" height="512.000000pt" viewBox="0 0 512.000000 512.000000"
 preserveAspectRatio="xMidYMid meet">
<metadata>
Created by potrace 1.14, written by Peter Selinger 2001-2017
</metadata>
<g transform="translate(0.000000,512.000000) scale(0.100000,-0.100000)"
fill="#000000" stroke="none">
<path d="M999 5116 c-2 -2 -24 -6 -49 -9 -25 -3 -79 -15 -120 -26 -368 -99
-657 -373 -775 -735 -26 -82 -31 -102 -45 -196 -5 -30 -9 -746 -9 -1590 0
-1613 0 -1601 44 -1755 49 -173 148 -338 278 -469 132 -133 269 -219 435 -275
84 -28 103 -33 202 -49 59 -9 3153 -9 3205 0 22 4 56 10 75 14 60 10 206 63
277 101 264 140 458 370 547 648 58 180 55 103 53 1810 -1 864 -6 1584 -10
1600 -4 17 -15 59 -24 95 -74 307 -292 575 -588 723 -104 52 -164 72 -295 97
-90 18 -181 19 -1646 19 -853 1 -1553 -1 -1555 -3z"/>
</g>
</svg>
